<svg version="1.1" id="Layer_1" xmlns="http://www.w3.org/2000/svg" xmlns:xlink="http://www.w3.org/1999/xlink" x="0px" y="0px"
	 width="100%" viewBox="0 0 98 97" enable-background="new 0 0 98 97" xml:space="preserve">
<path fill="#FBFAFB" opacity="1.000000" stroke="none" 
	d="
M55.000000,98.000000 
	C36.666668,98.000000 18.833340,98.000000 1.000007,98.000000 
	C1.000005,65.666679 1.000005,33.333351 1.000002,1.000020 
	C33.666653,1.000013 66.333305,1.000013 98.999969,1.000007 
	C98.999977,33.333313 98.999977,65.666626 98.999985,97.999969 
	C84.500000,98.000000 70.000000,98.000000 55.000000,98.000000 
M34.178764,61.919617 
	C31.273220,61.919617 28.367678,61.919617 25.280508,61.919617 
	C25.280508,68.846558 25.257933,74.985664 25.304522,81.124260 
	C25.311617,82.059479 25.335070,83.555275 25.864336,83.841087 
	C32.919205,87.650696 39.963985,94.286552 48.313229,90.705070 
	C59.045658,86.101318 68.972771,79.576904 79.054573,73.557907 
	C80.231750,72.855118 81.091011,69.675613 80.485550,68.424431 
	C79.732956,66.869194 76.685081,64.797134 75.701012,65.254730 
	C70.629440,67.612999 65.209663,69.983162 61.247948,73.753532 
	C57.287621,77.522591 50.827782,79.806236 45.058990,76.255264 
	C46.845108,75.759315 47.908592,75.309906 49.007309,75.193741 
	C50.819843,75.002098 52.909500,75.552307 54.416039,74.824539 
	C56.271812,73.928047 57.649807,72.042519 59.234287,70.584435 
	C57.424114,69.549202 55.720493,68.193314 53.780525,67.548691 
	C50.258896,66.378479 46.571560,65.717720 43.001286,64.679588 
	C40.318222,63.899429 37.710098,62.861511 34.178764,61.919617 
M59.193943,4.883038 
	C49.492748,4.706812 42.657436,9.467282 40.929180,17.603571 
	C39.067276,26.369076 43.139732,33.276257 52.208023,37.266773 
	C53.487049,37.829617 54.243492,39.580013 55.408390,40.981068 
	C48.344082,40.163357 42.309677,39.464855 35.890675,38.721840 
	C38.403912,50.174404 41.986568,53.091003 54.383717,54.554329 
	C54.438976,55.459068 54.708771,57.195808 54.523998,57.245598 
	C50.528542,58.322231 46.482353,59.210598 42.445957,60.135303 
	C48.891811,63.044643 55.478645,65.058861 62.082035,67.017258 
	C62.484741,67.136696 63.059784,66.895966 63.484802,66.683266 
	C66.169380,65.339775 68.834229,63.956871 71.505592,62.586983 
	C71.463608,62.167820 71.421623,61.748653 71.379639,61.329491 
	C67.240768,60.299026 63.101906,59.268566 60.310196,58.573505 
	C65.858887,57.060146 72.952080,56.382030 78.675438,53.222511 
	C84.792030,49.845905 86.932259,42.554317 89.985352,35.450729 
	C78.332687,36.097572 67.091949,34.645245 58.945549,45.738949 
	C58.945549,42.518761 58.945549,40.433208 58.945549,38.405937 
	C69.826904,34.326935 74.448196,28.743578 73.950676,20.407644 
	C73.492279,12.727212 68.616989,7.309519 59.193943,4.883038 
M7.774830,84.769768 
	C12.440639,85.354118 17.106449,85.938461 22.048443,86.557396 
	C22.048443,76.956512 22.048443,68.679611 22.048443,60.164093 
	C17.214928,60.164093 12.654765,60.164093 7.550764,60.164093 
	C7.550764,68.297104 7.550764,76.093010 7.774830,84.769768 
z"/>
<path fill="#080808" opacity="1.000000" stroke="none" 
	d="
M34.623688,61.928978 
	C37.710098,62.861511 40.318222,63.899429 43.001286,64.679588 
	C46.571560,65.717720 50.258896,66.378479 53.780525,67.548691 
	C55.720493,68.193314 57.424114,69.549202 59.234287,70.584435 
	C57.649807,72.042519 56.271812,73.928047 54.416039,74.824539 
	C52.909500,75.552307 50.819843,75.002098 49.007309,75.193741 
	C47.908592,75.309906 46.845108,75.759315 45.058990,76.255264 
	C50.827782,79.806236 57.287621,77.522591 61.247948,73.753532 
	C65.209663,69.983162 70.629440,67.612999 75.701012,65.254730 
	C76.685081,64.797134 79.732956,66.869194 80.485550,68.424431 
	C81.091011,69.675613 80.231750,72.855118 79.054573,73.557907 
	C68.972771,79.576904 59.045658,86.101318 48.313229,90.705070 
	C39.963985,94.286552 32.919205,87.650696 25.864336,83.841087 
	C25.335070,83.555275 25.311617,82.059479 25.304522,81.124260 
	C25.257933,74.985664 25.280508,68.846558 25.280508,61.919617 
	C28.367678,61.919617 31.273220,61.919617 34.623688,61.928978 
z"/>
<path fill="#141414" opacity="1.000000" stroke="none" 
	d="
M59.621433,4.921135 
	C68.616989,7.309519 73.492279,12.727212 73.950676,20.407644 
	C74.448196,28.743578 69.826904,34.326935 58.945549,38.405937 
	C58.945549,40.433208 58.945549,42.518761 58.945549,45.738949 
	C67.091949,34.645245 78.332687,36.097572 89.985352,35.450729 
	C86.932259,42.554317 84.792030,49.845905 78.675438,53.222511 
	C72.952080,56.382030 65.858887,57.060146 60.310196,58.573505 
	C63.101906,59.268566 67.240768,60.299026 71.379639,61.329491 
	C71.421623,61.748653 71.463608,62.167820 71.505592,62.586983 
	C68.834229,63.956871 66.169380,65.339775 63.484802,66.683266 
	C63.059784,66.895966 62.484741,67.136696 62.082035,67.017258 
	C55.478645,65.058861 48.891811,63.044643 42.445957,60.135303 
	C46.482353,59.210598 50.528542,58.322231 54.523998,57.245598 
	C54.708771,57.195808 54.438976,55.459068 54.383717,54.554329 
	C41.986568,53.091003 38.403912,50.174404 35.890675,38.721840 
	C42.309677,39.464855 48.344082,40.163357 55.408390,40.981068 
	C54.243492,39.580013 53.487049,37.829617 52.208023,37.266773 
	C43.139732,33.276257 39.067276,26.369076 40.929180,17.603571 
	C42.657436,9.467282 49.492748,4.706812 59.621433,4.921135 
M63.131920,8.853333 
	C54.523323,5.924946 46.956886,8.978763 44.221611,16.485546 
	C41.554729,23.804625 45.241493,31.704321 52.564217,34.361397 
	C59.053806,36.716167 66.410835,33.831696 69.578346,27.690668 
	C72.999985,21.056969 70.873421,14.139560 63.131920,8.853333 
M71.829887,46.464336 
	C66.760025,47.623856 62.008915,49.263969 59.405640,54.488476 
	C73.658577,56.931885 81.661125,51.954796 85.790146,38.284351 
	C72.906670,37.097469 65.027390,40.089027 61.244705,47.734352 
	C64.422699,46.624973 67.459366,45.468044 70.573227,44.582588 
	C71.039345,44.450039 71.867386,45.590275 71.829887,46.464336 
M52.968971,51.440334 
	C53.117355,51.366253 53.282204,51.312859 53.409142,51.211830 
	C53.519470,51.124020 53.586929,50.982346 53.673332,50.864468 
	C52.252422,49.849506 50.831516,48.834541 48.262733,46.999645 
	C51.053444,46.999645 52.431965,46.999645 54.255600,46.999645 
	C50.549206,40.937229 45.109486,42.488182 40.127090,42.008869 
	C42.202553,49.251896 44.070602,50.680611 52.968971,51.440334 
z"/>
<path fill="#080808" opacity="1.000000" stroke="none" 
	d="
M7.662797,84.329346 
	C7.550764,76.093010 7.550764,68.297104 7.550764,60.164093 
	C12.654765,60.164093 17.214928,60.164093 22.048443,60.164093 
	C22.048443,68.679611 22.048443,76.956512 22.048443,86.557396 
	C17.106449,85.938461 12.440639,85.354118 7.662797,84.329346 
z"/>
<path fill="#F0F0F0" opacity="1.000000" stroke="none" 
	d="
M63.504696,8.999956 
	C70.873421,14.139560 72.999985,21.056969 69.578346,27.690668 
	C66.410835,33.831696 59.053806,36.716167 52.564217,34.361397 
	C45.241493,31.704321 41.554729,23.804625 44.221611,16.485546 
	C46.956886,8.978763 54.523323,5.924946 63.504696,8.999956 
M58.206036,11.424871 
	C54.381428,11.731148 52.016670,13.924219 51.562931,17.564850 
	C50.911835,22.788960 55.389481,22.718540 58.761173,24.548393 
	C56.486729,24.778017 54.212280,25.007641 50.238728,25.408802 
	C53.098515,27.871283 54.943207,29.459694 56.759064,31.023273 
	C65.454567,23.540205 65.367386,22.514753 55.135513,17.239353 
	C57.910934,16.920078 59.879250,16.693647 61.847565,16.467218 
	C62.101257,16.070265 62.354950,15.673309 62.608643,15.276355 
	C61.272018,14.217577 59.935394,13.158798 58.206036,11.424871 
z"/>
<path fill="#F0F0F0" opacity="1.000000" stroke="none" 
	d="
M72.178940,46.303028 
	C71.867386,45.590275 71.039345,44.450039 70.573227,44.582588 
	C67.459366,45.468044 64.422699,46.624973 61.244705,47.734352 
	C65.027390,40.089027 72.906670,37.097469 85.790146,38.284351 
	C81.661125,51.954796 73.658577,56.931885 59.405640,54.488476 
	C62.008915,49.263969 66.760025,47.623856 72.178940,46.303028 
z"/>
<path fill="#E7E7E7" opacity="1.000000" stroke="none" 
	d="
M52.596298,51.465309 
	C44.070602,50.680611 42.202553,49.251896 40.127090,42.008869 
	C45.109486,42.488182 50.549206,40.937229 54.255600,46.999645 
	C52.431965,46.999645 51.053444,46.999645 48.262733,46.999645 
	C50.831516,48.834541 52.252422,49.849506 53.673332,50.864471 
	C53.586929,50.982346 53.519470,51.124020 53.409142,51.211830 
	C53.282204,51.312859 53.117355,51.366253 52.596298,51.465309 
z"/>
<path fill="#151515" opacity="1.000000" stroke="none" 
	d="
M58.402405,11.762445 
	C59.935394,13.158798 61.272018,14.217577 62.608643,15.276355 
	C62.354950,15.673309 62.101257,16.070265 61.847565,16.467218 
	C59.879250,16.693647 57.910934,16.920078 55.135513,17.239353 
	C65.367386,22.514753 65.454567,23.540205 56.759064,31.023273 
	C54.943207,29.459694 53.098515,27.871283 50.238728,25.408802 
	C54.212280,25.007641 56.486729,24.778017 58.761173,24.548393 
	C55.389481,22.718540 50.911835,22.788960 51.562931,17.564850 
	C52.016670,13.924219 54.381428,11.731148 58.402405,11.762445 
z"/>
</svg>